<?xml version="1.0" standalone="no"?>
<!DOCTYPE svg PUBLIC "-//W3C//DTD SVG 20010904//EN"
 "http://www.w3.org/TR/2001/REC-SVG-20010904/DTD/svg10.dtd">
<svg id="Group_2" data-name="Group 2" xmlns="http://www.w3.org/2000/svg" xmlns:xlink="http://www.w3.org/1999/xlink" width="114.249" height="32.294" viewBox="0 0 114.249 32.294">
	<title>Dele logo</title>
  <defs>
    <clipPath id="clip-path">
      <rect id="Rectangle_1" data-name="Rectangle 1" width="114.249" height="32.294" fill="#3e1192"></rect>
    </clipPath>
  </defs>
  <g id="Group_1" data-name="Group 1" clip-path="url(#clip-path)">
    <path id="Path_1" data-name="Path 1" d="M124.144,0h-4.116a.7.7,0,0,0-.7.7v7.89A13.042,13.042,0,1,0,111.8,32.269,13.058,13.058,0,0,0,124.837,19.41h0V.7a.7.7,0,0,0-.7-.7m-4.812,19.226a7.536,7.536,0,1,1-7.536-7.536,7.545,7.545,0,0,1,7.536,7.536" transform="translate(-78.023)" fill="#3e1192"></path>
    <path id="Path_2" data-name="Path 2" d="M249.888,29.435a11.241,11.241,0,0,0-8.253,3.347,14.578,14.578,0,0,0-3.919,10.149,13.2,13.2,0,0,0,3.628,9.447,10.847,10.847,0,0,0,8.312,3.172,13.493,13.493,0,0,0,7.253-1.879,12.672,12.672,0,0,0,3.809-3.937.7.7,0,0,0-.249-.978l-3.66-2.059a.7.7,0,0,0-.926.233,8.474,8.474,0,0,1-1.947,2.154,5.967,5.967,0,0,1-3.872,1.217,5.755,5.755,0,0,1-4.333-1.563,8.025,8.025,0,0,1-2.051-4.586.256.256,0,0,1,.065-.2.274.274,0,0,1,.2-.091h16.6a.7.7,0,0,0,.7-.7v-.058c0-4.609-1.13-8.024-3.453-10.44a10.614,10.614,0,0,0-7.9-3.231m-5.72,9.29a6.307,6.307,0,0,1,1.621-2.713,5.888,5.888,0,0,1,7.793-.174,5.881,5.881,0,0,1,1.65,2.9.273.273,0,0,1-.051.235.267.267,0,0,1-.211.1H244.424a.266.266,0,0,1-.215-.109.274.274,0,0,1-.042-.245" transform="translate(-187.816 -23.256)" fill="#3e1192"></path>
    <path id="Path_3" data-name="Path 3" d="M452.258,32.666a10.614,10.614,0,0,0-7.9-3.231,11.242,11.242,0,0,0-8.254,3.347,14.579,14.579,0,0,0-3.919,10.149,13.2,13.2,0,0,0,3.628,9.447,10.848,10.848,0,0,0,8.312,3.172,13.493,13.493,0,0,0,7.253-1.879,12.67,12.67,0,0,0,3.808-3.936.7.7,0,0,0-.249-.978l-3.66-2.059a.7.7,0,0,0-.926.232,8.479,8.479,0,0,1-1.947,2.155,5.968,5.968,0,0,1-3.872,1.217,5.755,5.755,0,0,1-4.333-1.563,8.022,8.022,0,0,1-2.051-4.586.255.255,0,0,1,.065-.2.273.273,0,0,1,.2-.091h16.6a.7.7,0,0,0,.7-.7v-.058c0-4.608-1.129-8.024-3.453-10.44m-2.612,6.311a.266.266,0,0,1-.211.1H438.89a.265.265,0,0,1-.215-.108.274.274,0,0,1-.042-.246,6.308,6.308,0,0,1,1.62-2.713,5.888,5.888,0,0,1,7.793-.174,5.879,5.879,0,0,1,1.65,2.9.274.274,0,0,1-.051.235" transform="translate(-341.461 -23.256)" fill="#3e1192"></path>
    <path id="Path_4" data-name="Path 4" d="M379.024,26.809a4.7,4.7,0,0,1-2.722-.821,5.247,5.247,0,0,1-1.924-2.512,13.278,13.278,0,0,1-.507-4.334c.017-3.589.012-7.234.006-10.759v-.1q0-2.708-.006-5.417V.733a.7.7,0,0,0-.7-.7h-4.116a.7.7,0,0,0-.7.7V2.864q0,2.713.006,5.432c.006,3.547.012,7.215-.006,10.819a18.109,18.109,0,0,0,.816,6.179,10.643,10.643,0,0,0,3.75,5.048,9.929,9.929,0,0,0,6.046,1.98h.018a.7.7,0,0,0,.7-.7V27.5a.7.7,0,0,0-.67-.694" transform="translate(-291.04 -0.029)" fill="#3e1192"></path>
    <path id="Path_5" data-name="Path 5" d="M11.817,5.123a5.132,5.132,0,0,0-3.043.991L5.951,3.992A3.05,3.05,0,1,0,3.05,6.1a3.017,3.017,0,0,0,1.829-.611L7.493,7.454a5.17,5.17,0,0,0,0,5.7L4.879,15.118a3.016,3.016,0,0,0-1.829-.611,3.053,3.053,0,1,0,2.9,2.109l2.824-2.122a5.134,5.134,0,0,0,3.043.991,5.18,5.18,0,1,0,0-10.36m0,8.519A3.339,3.339,0,1,1,15.157,10.3a3.343,3.343,0,0,1-3.339,3.339M4.26,3.05a1.21,1.21,0,1,1-1.21-1.21A1.211,1.211,0,0,1,4.26,3.05m0,14.506a1.21,1.21,0,1,1-1.21-1.21,1.211,1.211,0,0,1,1.21,1.21" fill="#3e1192"></path>
  </g>
</svg>